<?xml version="1.0" standalone="no"?>
<!DOCTYPE svg PUBLIC "-//W3C//DTD SVG 20010904//EN"
 "http://www.w3.org/TR/2001/REC-SVG-20010904/DTD/svg10.dtd">
<svg version="1.0" xmlns="http://www.w3.org/2000/svg"
 width="512.000000pt" height="512.000000pt" viewBox="0 0 512.000000 512.000000"
 preserveAspectRatio="xMidYMid meet">
<metadata>
Created by potrace 1.13, written by Peter Selinger 2001-2015
</metadata>
<g transform="translate(0.000000,512.000000) scale(0.100000,-0.100000)"
fill="#9b55a0" stroke="none">
<path d="M435 4715 c-49 -17 -81 -53 -95 -104 -7 -27 -9 -706 -8 -2144 l3
-2106 21 -28 c11 -15 36 -38 54 -50 l33 -23 1662 0 1662 0 33 23 c72 48 75 58
78 263 l3 184 -155 0 -156 0 0 -80 0 -80 -1460 0 -1460 0 -4 23 c-3 12 -4 877
-3 1922 l2 1900 1165 0 1165 0 5 -265 c3 -146 9 -271 14 -279 23 -35 70 -41
326 -41 l250 0 0 -395 0 -395 155 0 156 0 -3 468 c-3 448 -4 468 -23 498 -11
16 -173 181 -360 366 -282 278 -348 338 -380 347 -28 8 -425 11 -1340 11
-1095 -1 -1306 -3 -1340 -15z"/>
<path d="M1616 2725 c-47 -17 -94 -59 -112 -102 -11 -26 -14 -160 -14 -728 0
-664 1 -697 19 -733 24 -47 56 -77 103 -97 33 -13 203 -15 1511 -15 l1473 0
44 22 c24 13 58 40 74 61 l31 39 3 696 c2 384 0 712 -3 730 -8 42 -59 100
-110 123 -38 18 -109 19 -1510 18 -1223 0 -1477 -2 -1509 -14z m849 -421 c70
-24 139 -95 159 -163 20 -70 20 -135 0 -199 -23 -69 -64 -115 -132 -149 -54
-26 -66 -28 -209 -32 l-153 -3 0 -154 0 -153 -32 -6 c-18 -3 -60 -5 -93 -3
l-60 3 -3 438 -2 437 238 0 c195 0 247 -3 287 -16z m810 2 c160 -49 252 -185
262 -386 11 -209 -66 -364 -216 -438 -56 -27 -56 -27 -308 -30 l-253 -3 0 435
0 436 233 0 c175 0 246 -4 282 -14z m1015 -66 l0 -80 -210 0 -210 0 0 -100 0
-100 185 0 185 0 0 -75 0 -75 -185 0 -185 0 -2 -182 -3 -183 -92 0 -93 0 0
438 0 437 305 0 305 0 0 -80z"/>
<path d="M2183 2173 l-53 -4 0 -131 0 -130 118 4 c167 5 202 29 202 137 0 58
-25 95 -73 109 -41 13 -128 20 -194 15z"/>
<path d="M2959 2130 c0 -16 -1 -131 -1 -255 0 -124 1 -234 1 -246 1 -20 5 -21
124 -17 116 3 126 5 166 31 64 42 95 116 95 227 1 113 -17 173 -68 226 -51 52
-91 64 -218 64 l-98 0 -1 -30z"/>
</g>
</svg>
